<?xml version="1.0" encoding="UTF-8" standalone="no"?>
<svg
   width="650.234375px"
   height="108.6177001953125px"
   viewBox="-75.1171875 20.691149902343753 650.234375 108.6177001953125"
   style="background: rgba(255, 255, 255, 0);"
   preserveAspectRatio="xMidYMid"
   version="1.1"
   id="svg3"
   sodipodi:docname="logo-new.svg"
   inkscape:version="1.3.2 (091e20e, 2023-11-25)"
   xml:space="preserve"
   xmlns:inkscape="http://www.inkscape.org/namespaces/inkscape"
   xmlns:sodipodi="http://sodipodi.sourceforge.net/DTD/sodipodi-0.dtd"
   xmlns:xlink="http://www.w3.org/1999/xlink"
   xmlns="http://www.w3.org/2000/svg"
   xmlns:svg="http://www.w3.org/2000/svg"><sodipodi:namedview
     id="namedview3"
     pagecolor="#ffffff"
     bordercolor="#000000"
     borderopacity="0.25"
     inkscape:showpageshadow="2"
     inkscape:pageopacity="0.0"
     inkscape:pagecheckerboard="0"
     inkscape:deskcolor="#d1d1d1"
     inkscape:zoom="0.81484884"
     inkscape:cx="322.14564"
     inkscape:cy="22.089987"
     inkscape:window-width="1312"
     inkscape:window-height="449"
     inkscape:window-x="59"
     inkscape:window-y="505"
     inkscape:window-maximized="0"
     inkscape:current-layer="svg3" /><defs
     id="defs2"><linearGradient
       id="linearGradient4"
       x1="11.222024"
       x2="161.11703"
       y1="-87.817513"
       y2="-4.7293472"
       gradientUnits="userSpaceOnUse"
       gradientTransform="scale(2.6778606,0.37343243)"
       spreadMethod="pad"><stop
         offset="0"
         stop-color="#1f43f7"
         id="stop3"
         style="stop-color:#ffaa73;stop-opacity:1;" /><stop
         offset="1"
         stop-color="#ff644f"
         id="stop4"
         style="stop-color:#73aaff;stop-opacity:1;" /></linearGradient><linearGradient
       id="linearGradient205"
       inkscape:collect="always"><stop
         style="stop-color:#000000;stop-opacity:1;"
         offset="0"
         id="stop205" /><stop
         style="stop-color:#ffffff;stop-opacity:1;"
         offset="1"
         id="stop206" /></linearGradient><linearGradient
       id="editing-gradient-gradient"
       x1="11.222024"
       x2="161.11703"
       y1="-87.817513"
       y2="-4.7293472"
       gradientUnits="userSpaceOnUse"
       gradientTransform="scale(2.6778606,0.37343243)"
       spreadMethod="pad"><stop
         offset="0"
         stop-color="#1f43f7"
         id="stop1"
         style="stop-color:#5597ff;stop-opacity:1;" /><stop
         offset="1"
         stop-color="#ff644f"
         id="stop2"
         style="stop-color:#ed5555;stop-opacity:1;" /></linearGradient><clipPath
       clipPathUnits="userSpaceOnUse"
       id="clipPath202"><path
         d="M 75.117172,50.505442 V 43.166326 H 9.8302075 v 7.339116 H 38.761628 v 57.947848 h 7.339115 V 50.505442 Z M 3.3978555,55.861013 H -39.135013 v 0 q -4.61883,0 -7.84917,3.216177 v 0 0 q -3.216179,3.216176 -3.216179,7.749993 v 0 41.626107 h 42.6178795 v 0 q 4.533817,0 7.749993,-3.21618 v 0 0 q 3.230345,-3.21617 3.230345,-7.74999 v 0 -19.042031 H -42.677062 v -11.617906 0 q 0,-1.445154 1.04845,-2.493599 v 0 0 q 1.04844,-1.034277 2.4936,-1.034277 v 0 H 3.3978555 Z M -7.5824825,101.015 H -42.677063 V 85.869214 h 38.6366245 v 11.617906 0 q 0,1.445154 -1.048445,2.4936 v 0 0 q -1.034277,1.03428 -2.493599,1.03428 z M -81.667883,78.445089 -102.33925,55.861013 h -9.79022 l 23.845047,26.296139 -23.760037,26.296138 h 9.70521 l 20.671368,-22.584076 h 14.50821 v 22.584076 h 7.438289 V 38.632509 h -7.438289 v 39.81258 z M -128.53622,55.861013 h -31.5667 v 0 q -4.61882,0 -7.835,3.216177 v 0 0 q -3.21618,3.216176 -3.21618,7.749993 v 0 19.042031 h 46.14576 v 11.617906 0 q 0,1.445154 -1.03428,2.4936 v 0 0 q -1.04844,1.03428 -2.4936,1.03428 v 0 h -42.61788 v 7.43829 h 42.61788 v 0 q 4.53382,0 7.75,-3.21618 v 0 0 q 3.21617,-3.21617 3.21617,-7.74999 v 0 -30.659937 0 q 0,-4.533817 -3.21617,-7.749993 v 0 0 q -3.21618,-3.216177 -7.75,-3.216177 z m 3.52788,10.96617 v 11.617906 h -38.62245 v -11.617906 0 q 0,-1.445154 1.03427,-2.493599 v 0 0 q 1.04845,-1.034277 2.4936,-1.034277 v 0 h 31.5667 v 0 q 1.44516,0 2.4936,1.034277 v 0 0 q 1.03428,1.048445 1.03428,2.493599 z m -55.58176,-10.96617 h -42.61788 v 0 q -4.53382,0 -7.74999,3.216177 v 0 0 q -3.21618,3.216176 -3.21618,7.749993 v 0 30.659937 0 q 0,4.53382 3.21618,7.74999 v 0 0 q 3.21617,3.21618 7.74999,3.21618 v 0 h 35.17958 v 20.85556 h 7.4383 z m -46.15993,41.626107 v 0 -30.659937 0 q 0,-1.445154 1.04845,-2.493599 v 0 0 q 1.04844,-1.034277 2.4936,-1.034277 v 0 h 31.55253 v 0 q 1.45932,0 2.53611,1.034277 v 0 0 q 1.09094,1.048445 1.09094,2.493599 v 0 30.659937 0 q 0,1.445154 -1.09094,2.4936 v 0 0 q -1.07679,1.03428 -2.53611,1.03428 v 0 h -31.55253 v 0 q -1.44516,0 -2.4936,-1.03428 v 0 0 q -1.04845,-1.048446 -1.04845,-2.4936 z m -24.7518,-41.626107 v 0 h -31.55254 v 0 q -4.61882,0 -7.84917,3.216177 v 0 0 q -3.21617,3.216176 -3.21617,7.749993 v 0 30.659937 0 q 0,4.53382 3.21617,7.74999 v 0 0 q 3.23035,3.21618 7.84917,3.21618 v 0 h 31.55254 v 0 q 4.53381,0 7.74999,-3.21618 v 0 0 q 3.23035,-3.21617 3.23035,-7.74999 v 0 -30.659937 0 q 0,-4.533817 -3.23035,-7.749993 v 0 0 q -3.21618,-3.216177 -7.74999,-3.216177 z m -31.55254,7.438294 v 0 h 31.55254 v 0 q 1.45932,0 2.4936,1.034277 v 0 0 q 1.04844,1.048445 1.04844,2.493599 v 0 30.659937 0 q 0,1.445154 -1.04844,2.4936 v 0 0 q -1.03428,1.03428 -2.4936,1.03428 v 0 h -31.55254 v 0 q -1.44515,0 -2.49359,-1.03428 v 0 0 q -1.04845,-1.048446 -1.04845,-2.4936 v 0 -30.659937 0 q 0,-1.445154 1.04845,-2.493599 v 0 0 q 1.04844,-1.034277 2.49359,-1.034277 z m -27.74129,45.153983 h 7.42413 V 55.861013 h -7.42413 z m 7.42413,-62.382488 v -7.438293 h -7.42413 v 7.438293 z m -17.68189,9.790211 h -42.61788 v 0 q -4.53381,0 -7.74999,3.216177 v 0 0 q -3.21618,3.216176 -3.21618,7.749993 v 0 41.626107 h 7.4383 v -41.626107 0 q 0,-1.445154 1.03427,-2.493599 v 0 0 q 1.04845,-1.034277 2.4936,-1.034277 v 0 h 31.5667 v 0 q 1.44516,0 2.53611,1.034277 v 0 0 q 1.09095,1.048445 1.09095,2.493599 v 0 41.626107 h 7.42412 z m -93.21244,0 v 7.438294 h 22.76826 v 34.187813 0 q 0,1.445154 -1.04844,2.4936 v 0 0 q -1.04845,1.03428 -2.4936,1.03428 v 0 h -19.22622 v 7.43829 h 19.22622 v 0 q 4.61882,0 7.79249,-3.21618 v 0 0 q 3.17368,-3.21617 3.17368,-7.74999 v 0 -58.854611 h -7.42413 v 17.228504 z m -60.11558,10.96617 v 0 0.736745 h 7.5233 v -0.736745 0 q 0,-1.445154 1.04845,-2.493599 v 0 0 q 1.03427,-1.034277 2.4936,-1.034277 v 0 h 31.55253 v 0 q 1.44515,0 2.4936,1.034277 v 0 0 q 1.04844,1.048445 1.04844,2.493599 v 0 8.075862 0 q 0,1.445154 -1.04844,2.493599 v 0 0 q -1.04845,1.048445 -2.4936,1.048445 v 0 h -31.55253 v 0 q -4.633,0 -7.84917,3.216176 v 0 0 q -3.21618,3.216177 -3.21618,7.749994 v 0 8.075861 0 q 0,4.53382 3.21618,7.74999 v 0 0 q 3.21617,3.21618 7.84917,3.21618 v 0 h 31.55253 v 0 q 4.53382,0 7.74999,-3.21618 v 0 0 q 3.21618,-3.21617 3.21618,-7.74999 v 0 -0.736745 h -7.42413 v 0.736745 0 q 0,1.445154 -1.04844,2.4936 v 0 0 q -1.04845,1.03428 -2.4936,1.03428 v 0 h -31.55253 v 0 q -1.45933,0 -2.4936,-1.03428 v 0 0 q -1.04845,-1.048446 -1.04845,-2.4936 v 0 -8.075861 0 q 0,-1.445154 1.04845,-2.493599 v 0 0 q 1.03427,-1.048446 2.4936,-1.048446 v 0 h 31.55253 v 0 q 4.53382,0 7.74999,-3.216176 v 0 0 q 3.21618,-3.216176 3.21618,-7.749993 v 0 -8.075862 0 q 0,-4.533817 -3.21618,-7.749993 v 0 0 q -3.21617,-3.216177 -7.74999,-3.216177 v 0 h -31.55253 v 0 q -4.633,0 -7.84917,3.216177 v 0 0 q -3.21618,3.216176 -3.21618,7.749993 z m -9.15264,34.187817 h -7.4383 v 7.43829 h 7.4383 z m -26.66451,7.43829 h 7.43829 V 55.861013 h -7.43829 z m 7.43829,-62.382488 v -7.438293 h -7.43829 v 7.438293 z m -29.73901,9.790211 v 0 h -31.5667 v 0 q -4.61882,0 -7.835,3.216177 v 0 0 q -3.21618,3.216176 -3.21618,7.749993 v 0 30.659937 0 q 0,4.53382 3.21618,7.74999 v 0 0 q 3.21618,3.21618 7.835,3.21618 v 0 h 31.5667 v 0 q 4.53382,0 7.75,-3.21618 v 0 0 q 3.21617,-3.21617 3.21617,-7.74999 v 0 -30.659937 0 q 0,-4.533817 -3.21617,-7.749993 v 0 0 q -3.21618,-3.216177 -7.75,-3.216177 z m -31.5667,7.438294 v 0 h 31.5667 v 0 q 1.44516,0 2.4936,1.034277 v 0 0 q 1.03428,1.048445 1.03428,2.493599 v 0 30.659937 0 q 0,1.445154 -1.03428,2.4936 v 0 0 q -1.04844,1.03428 -2.4936,1.03428 v 0 h -31.5667 v 0 q -1.44515,0 -2.4936,-1.03428 v 0 0 q -1.03427,-1.048446 -1.03427,-2.4936 v 0 -30.659937 0 q 0,-1.445154 1.03427,-2.493599 v 0 0 q 1.04845,-1.034277 2.4936,-1.034277 z"
         fill="url(#editing-gradient-gradient)"
         id="path202"
         style="fill:url(#linearGradient202);stroke:#000000;stroke-width:0.6;stroke-dasharray:none;stroke-opacity:1"
         inkscape:label="logo2" /></clipPath><linearGradient
       inkscape:collect="always"
       xlink:href="#editing-gradient-gradient"
       id="linearGradient202"
       gradientUnits="userSpaceOnUse"
       gradientTransform="matrix(-3.7940406,0,0,0.52908571,76.930699,108.45329)"
       x1="11.222024"
       y1="-87.817513"
       x2="161.11703"
       y2="-4.7293472"
       spreadMethod="pad" /><mask
       maskUnits="userSpaceOnUse"
       id="mask206"><rect
         style="opacity:1;fill:url(#linearGradient207);fill-rule:evenodd;stroke:none;stroke-width:0.847;stroke-linecap:square;stroke-dasharray:none;stroke-opacity:1"
         id="rect206"
         width="126.25085"
         height="90.676338"
         x="448.86633"
         y="38.632507"
         inkscape:label="mask"
         transform="scale(-1,1)" /></mask><linearGradient
       inkscape:collect="always"
       xlink:href="#linearGradient205"
       id="linearGradient207"
       gradientUnits="userSpaceOnUse"
       x1="448.86633"
       y1="83.970676"
       x2="575.11718"
       y2="83.970676" /><filter
       id="mask-powermask-path-effect7_inverse"
       inkscape:label="filtermask-powermask-path-effect7"
       style="color-interpolation-filters:sRGB"
       height="100"
       width="100"
       x="-50"
       y="-50"><feColorMatrix
         id="mask-powermask-path-effect7_primitive1"
         values="1"
         type="saturate"
         result="fbSourceGraphic" /><feColorMatrix
         id="mask-powermask-path-effect7_primitive2"
         values="-1 0 0 0 1 0 -1 0 0 1 0 0 -1 0 1 0 0 0 1 0 "
         in="fbSourceGraphic" /></filter><linearGradient
       inkscape:collect="always"
       xlink:href="#linearGradient4"
       id="linearGradient7"
       gradientUnits="userSpaceOnUse"
       gradientTransform="matrix(3.7940406,0,0,0.52908571,-77.230708,108.75329)"
       x1="11.222024"
       y1="-87.817513"
       x2="161.11703"
       y2="-4.7293472"
       spreadMethod="pad" /></defs><path
     d="m -75.417181,50.805443 v -7.339116 h 65.286964 v 7.339116 h -28.931419 v 57.947847 h -7.339117 V 50.805443 Z m 71.7193169,5.355571 H 38.835006 v 0 q 4.618826,0 7.849171,3.216177 v 0 0 q 3.216176,3.216176 3.216176,7.749993 v 0 41.626106 H 7.2824739 v 0 q -4.533817,0 -7.74999337,-3.21618 v 0 0 Q -3.6978641,102.32094 -3.6978641,97.787121 v 0 V 78.74509 H 42.377051 v -11.617906 0 q 0,-1.445154 -1.048445,-2.493599 v 0 0 q -1.048446,-1.034277 -2.4936,-1.034277 v 0 H -3.6978641 Z M 7.2824739,101.315 H 42.377051 V 86.169215 H 3.7404294 v 11.617906 0 q 0,1.445155 1.0484452,2.493599 v 0 0 q 1.034277,1.03428 2.4935993,1.03428 z M 81.367877,78.74509 102.03925,56.161014 h 9.79021 L 87.984416,82.457153 111.74445,108.75329 h -9.7052 L 81.367877,86.169215 H 66.859662 V 108.75329 H 59.421369 V 38.93251 h 7.438293 V 78.74509 Z M 128.23621,56.161014 h 31.5667 v 0 q 4.61883,0 7.835,3.216177 v 0 0 q 3.21618,3.216176 3.21618,7.749993 v 0 19.042031 h -46.14576 v 11.617906 0 q 0,1.445155 1.03428,2.493599 v 0 0 q 1.04845,1.03428 2.4936,1.03428 v 0 h 42.61788 v 7.43829 h -42.61788 v 0 q -4.53382,0 -7.74999,-3.21618 v 0 0 q -3.21618,-3.21617 -3.21618,-7.749989 v 0 -30.659937 0 q 0,-4.533817 3.21618,-7.749993 v 0 0 q 3.21617,-3.216177 7.74999,-3.216177 z m -3.52788,10.96617 V 78.74509 h 38.62246 v -11.617906 0 q 0,-1.445154 -1.03428,-2.493599 v 0 0 q -1.04845,-1.034277 -2.4936,-1.034277 v 0 h -31.5667 v 0 q -1.44515,0 -2.4936,1.034277 v 0 0 q -1.03428,1.048445 -1.03428,2.493599 z m 55.58177,-10.96617 h 42.61787 v 0 q 4.53382,0 7.75,3.216177 v 0 0 q 3.21617,3.216176 3.21617,7.749993 v 0 30.659937 0 q 0,4.533819 -3.21617,7.749989 v 0 0 q -3.21618,3.21618 -7.75,3.21618 v 0 h -35.17958 v 20.85556 h -7.43829 z m 46.15992,41.626107 v 0 -30.659937 0 q 0,-1.445154 -1.04845,-2.493599 v 0 0 q -1.04844,-1.034277 -2.4936,-1.034277 v 0 h -31.55253 v 0 q -1.45932,0 -2.5361,1.034277 v 0 0 q -1.09095,1.048445 -1.09095,2.493599 v 0 30.659937 0 q 0,1.445155 1.09095,2.493599 v 0 0 q 1.07678,1.03428 2.5361,1.03428 v 0 h 31.55253 v 0 q 1.44516,0 2.4936,-1.03428 v 0 0 q 1.04845,-1.048444 1.04845,-2.493599 z m 24.75181,-41.626107 v 0 h 31.55253 v 0 q 4.61882,0 7.84917,3.216177 v 0 0 q 3.21618,3.216176 3.21618,7.749993 v 0 30.659937 0 q 0,4.533819 -3.21618,7.749989 v 0 0 q -3.23035,3.21618 -7.84917,3.21618 v 0 h -31.55253 v 0 q -4.53382,0 -7.75,-3.21618 v 0 0 q -3.23034,-3.21617 -3.23034,-7.749989 v 0 -30.659937 0 q 0,-4.533817 3.23034,-7.749993 v 0 0 q 3.21618,-3.216177 7.75,-3.216177 z m 31.55253,7.438294 v 0 h -31.55253 v 0 q -1.45933,0 -2.4936,1.034277 v 0 0 q -1.04845,1.048445 -1.04845,2.493599 v 0 30.659937 0 q 0,1.445155 1.04845,2.493599 v 0 0 q 1.03427,1.03428 2.4936,1.03428 v 0 h 31.55253 v 0 q 1.44515,0 2.4936,-1.03428 v 0 0 q 1.04844,-1.048444 1.04844,-2.493599 v 0 -30.659937 0 q 0,-1.445154 -1.04844,-2.493599 v 0 0 q -1.04845,-1.034277 -2.4936,-1.034277 z m 27.74129,45.153982 h -7.42412 V 56.161014 h 7.42412 z M 303.07153,46.370803 V 38.93251 h 7.42412 v 7.438293 z m 17.68188,9.790211 h 42.61788 v 0 q 4.53382,0 7.74999,3.216177 v 0 0 q 3.21618,3.216176 3.21618,7.749993 v 0 41.626106 h -7.43829 v -41.626106 0 q 0,-1.445154 -1.03428,-2.493599 v 0 0 q -1.04844,-1.034277 -2.4936,-1.034277 v 0 h -31.5667 v 0 q -1.44515,0 -2.5361,1.034277 v 0 0 q -1.09095,1.048445 -1.09095,2.493599 v 0 41.626106 h -7.42413 z m 93.21245,0 v 7.438294 h -22.76827 v 34.187813 0 q 0,1.445155 1.04845,2.493599 v 0 0 q 1.04844,1.03428 2.4936,1.03428 v 0 h 19.22622 v 7.43829 h -19.22622 v 0 q -4.61883,0 -7.7925,-3.21618 v 0 0 q -3.17367,-3.21617 -3.17367,-7.749989 v 0 -58.854611 h 7.42412 v 17.228504 z m 60.11557,10.96617 v 0 0.736745 h -7.5233 v -0.736745 0 q 0,-1.445154 -1.04844,-2.493599 v 0 0 q -1.03428,-1.034277 -2.4936,-1.034277 v 0 h -31.55253 v 0 q -1.44516,0 -2.4936,1.034277 v 0 0 q -1.04845,1.048445 -1.04845,2.493599 v 0 8.075862 0 q 0,1.445154 1.04845,2.493599 v 0 0 q 1.04844,1.048445 2.4936,1.048445 v 0 h 31.55253 v 0 q 4.63299,0 7.84917,3.216177 v 0 0 q 3.21617,3.216176 3.21617,7.749993 v 0 8.075861 0 q 0,4.533819 -3.21617,7.749989 v 0 0 q -3.21618,3.21618 -7.84917,3.21618 v 0 h -31.55253 v 0 q -4.53382,0 -7.75,-3.21618 v 0 0 q -3.21617,-3.21617 -3.21617,-7.749989 v 0 -0.736745 h 7.42412 v 0.736745 0 q 0,1.445155 1.04845,2.493599 v 0 0 q 1.04844,1.03428 2.4936,1.03428 v 0 h 31.55253 v 0 q 1.45932,0 2.4936,-1.03428 v 0 0 q 1.04844,-1.048444 1.04844,-2.493599 v 0 -8.075861 0 q 0,-1.445154 -1.04844,-2.493599 v 0 0 q -1.03428,-1.048446 -2.4936,-1.048446 v 0 h -31.55253 v 0 q -4.53382,0 -7.75,-3.216176 v 0 0 q -3.21617,-3.216176 -3.21617,-7.749993 v 0 -8.075862 0 q 0,-4.533817 3.21617,-7.749993 v 0 0 q 3.21618,-3.216177 7.75,-3.216177 v 0 h 31.55253 v 0 q 4.63299,0 7.84917,3.216177 v 0 0 q 3.21617,3.216176 3.21617,7.749993 z m 9.15265,34.187816 h 7.43829 v 7.43829 h -7.43829 z m 26.66451,7.43829 h -7.4383 V 56.161014 h 7.4383 z m -7.4383,-62.382487 V 38.93251 h 7.4383 v 7.438293 z m 29.73901,9.790211 v 0 h 31.5667 v 0 q 4.61883,0 7.835,3.216177 v 0 0 q 3.21618,3.216176 3.21618,7.749993 v 0 30.659937 0 q 0,4.533819 -3.21618,7.749989 v 0 0 q -3.21617,3.21618 -7.835,3.21618 v 0 h -31.5667 v 0 q -4.53382,0 -7.74999,-3.21618 v 0 0 q -3.21618,-3.21617 -3.21618,-7.749989 v 0 -30.659937 0 q 0,-4.533817 3.21618,-7.749993 v 0 0 q 3.21617,-3.216177 7.74999,-3.216177 z m 31.5667,7.438294 v 0 h -31.5667 v 0 q -1.44515,0 -2.4936,1.034277 v 0 0 q -1.03428,1.048445 -1.03428,2.493599 v 0 30.659937 0 q 0,1.445155 1.03428,2.493599 v 0 0 q 1.04845,1.03428 2.4936,1.03428 v 0 h 31.5667 v 0 q 1.44516,0 2.4936,-1.03428 v 0 0 q 1.03428,-1.048444 1.03428,-2.493599 v 0 -30.659937 0 q 0,-1.445154 -1.03428,-2.493599 v 0 0 q -1.04844,-1.034277 -2.4936,-1.034277 z"
     fill="url(#editing-gradient-gradient)"
     id="path2"
     style="display:inline;fill:url(#linearGradient7);stroke:#000000;stroke-width:0.6;stroke-dasharray:none;stroke-opacity:1"
     inkscape:label="logo1" /><style
     id="style3">text {
  font-size: 64px;
  font-family: Arial Black;
  dominant-baseline: central;
  text-anchor: middle;
}</style></svg>
