<?xml version="1.0" encoding="UTF-8" standalone="no"?>
<!-- Created with Inkscape (http://www.inkscape.org/) -->

<svg
   width="100mm"
   height="100mm"
   viewBox="0 0 100 100"
   version="1.1"
   id="svg1"
   inkscape:version="1.3.2 (091e20e, 2023-11-25)"
   sodipodi:docname="unlimitedAmmo.svg"
   xmlns:inkscape="http://www.inkscape.org/namespaces/inkscape"
   xmlns:sodipodi="http://sodipodi.sourceforge.net/DTD/sodipodi-0.dtd"
   xmlns="http://www.w3.org/2000/svg"
   xmlns:svg="http://www.w3.org/2000/svg">
  <sodipodi:namedview
     id="namedview1"
     pagecolor="#ffffff"
     bordercolor="#000000"
     borderopacity="0.25"
     inkscape:showpageshadow="2"
     inkscape:pageopacity="0.0"
     inkscape:pagecheckerboard="0"
     inkscape:deskcolor="#d1d1d1"
     inkscape:document-units="mm"
     inkscape:zoom="0.80033502"
     inkscape:cx="239.89954"
     inkscape:cy="173.67727"
     inkscape:window-width="1024"
     inkscape:window-height="653"
     inkscape:window-x="335"
     inkscape:window-y="87"
     inkscape:window-maximized="0"
     inkscape:current-layer="layer1"
     showguides="false" />
  <defs
     id="defs1" />
  <g
     inkscape:label="Layer 1"
     inkscape:groupmode="layer"
     id="layer1">
    <path
       style="color:#000000;opacity:1;fill:#6d6d6d;fill-opacity:1;stroke:#1a1a1a;stroke-width:0.980193;stroke-opacity:1;-inkscape-stroke:none"
       d="m 22.459277,36.034444 c -5.632447,-0.07976 -11.301645,1.977238 -15.6456414,6.182628 -8.6897951,8.412518 -8.7035945,22.135092 -0.031101,30.564322 8.6311244,8.38901 22.5236944,8.70483 31.2115864,0.294142 3.433866,-3.324304 9.966011,-10.017415 12.006849,-12.105055 2.041478,2.088291 8.573215,8.780977 12.006848,12.105055 8.687891,8.410689 22.57852,8.094869 31.209643,-0.294142 8.672489,-8.42923 8.658709,-22.151804 -0.0311,-30.564322 C 84.498425,33.806351 70.605933,34.122165 61.974774,42.511214 58.604549,45.786899 51.989815,52.197791 49.999026,54.127919 48.00624,52.195948 41.395107,45.786569 38.025222,42.511214 33.709716,38.316763 28.091712,36.1142 22.459277,36.034444 Z m 55.133924,4.60256 c 4.394539,-0.06563 8.786603,1.536384 12.218723,4.858992 6.862398,6.643423 6.874053,17.355452 0.02527,24.012131 -6.890157,6.69688 -17.590672,6.933737 -24.45494,0.288485 C 62.029518,66.550851 55.099357,59.454409 53.233507,57.546371 55.105662,55.731277 61.939973,49.10564 65.356984,45.784482 68.802043,42.436058 73.198663,40.702627 77.593201,40.637004 Z M 22.3893,40.667174 c 4.399792,0.06231 8.808575,1.768812 12.253711,5.117309 3.417078,3.321224 10.252429,9.947956 12.123477,11.761889 -1.865937,1.908126 -8.794096,9.004506 -12.146802,12.25024 -6.864271,6.645252 -17.564782,6.408396 -24.454941,-0.288485 -6.8487854,-6.656678 -6.8390637,-17.368708 0.02333,-24.012131 3.432088,-3.322577 7.801451,-4.891124 12.201229,-4.828823 z"
       id="path2"
       inkscape:label="infinity" />
    <path
       id="path1"
       style="fill:#565a5e;fill-opacity:1;stroke-width:9.00832"
       d="m 91.024513,20.064339 c 0,4.574825 -7.71111,8.283458 -15.491483,8.283458 -7.780372,0 -14.08761,-3.708629 -14.08761,-8.283453 1e-6,-4.574824 6.307238,-8.283453 14.08761,-8.283453 7.780371,0 15.491482,3.708625 15.491483,8.283448 z"
       sodipodi:nodetypes="sssss" />
    <rect
       style="fill:#fff284;fill-opacity:1;stroke:none;stroke-width:6.5522;stroke-dasharray:none;stroke-opacity:1"
       id="rect3"
       width="14.08761"
       height="16.566904"
       x="61.445427"
       y="11.78089" />
    <rect
       style="fill:#1a1a1a;stroke:#1a1a1a;stroke-width:5.69451"
       id="rect1"
       width="36.28756"
       height="10.872385"
       x="31.85622"
       y="14.62815" />
    <rect
       style="fill:#1a1a1a;fill-opacity:1;stroke:none;stroke-width:6.5522;stroke-dasharray:none;stroke-opacity:1"
       id="rect4"
       width="12.763521"
       height="1.3614424"
       x="14.352173"
       y="13.884146" />
    <rect
       style="fill:#1a1a1a;fill-opacity:1;stroke:none;stroke-width:6.5522;stroke-dasharray:none;stroke-opacity:1"
       id="rect5"
       width="8.6791954"
       height="0.91526258"
       x="6.6940584"
       y="20.064341" />
    <rect
       style="fill:#1a1a1a;fill-opacity:1;stroke:none;stroke-width:6.5522;stroke-dasharray:none;stroke-opacity:1"
       id="rect6"
       width="15.571496"
       height="1.3614424"
       x="11.033655"
       y="25.309032" />
  </g>
</svg>
